<?xml version="1.0" encoding="UTF-8"?>
<!DOCTYPE svg PUBLIC "-//W3C//DTD SVG 1.1//EN" "http://www.w3.org/Graphics/SVG/1.1/DTD/svg11.dtd">
<svg xmlns="http://www.w3.org/2000/svg" xmlns:xlink="http://www.w3.org/1999/xlink" version="1.1" width="400" height="400" viewBox="0, 0, 400, 400" xml:space="preserve" xmlns:serif="http://www.serif.com/" style="fill-rule:evenodd;clip-rule:evenodd;stroke-linejoin:round;stroke-miterlimit:2;">
    <path id="path0" d="M148.333 200.000 L 148333 255.333 170.333 255.333 L 192.333 255.333 192.333 200.000 L 192.333 144.667 170.333 144.667 L 148.333 144.667 148.333 200.000 M23.500 200.083 L 23.500 255.333 45.500 255.333 L 67.500 255.333 67.500 233.917 L 67.500 212.500 75.250 212.500 L 83.000 212.500 83.000 233.917 L 83.000 255.333 105.000 255.333 L 127.000 255.333 127.000 200.083 L 127.000 144.833 105.000 144.833 L 83.000 144.833 83.000 172.417 L 83.000 200.000 75.250 200.000 L 67.500 200.000 67.500 172.417 L 67.500 144.833 45.500 144.833 L 23.500 144.833 23.500 200.083 M238.819 222.397 C 238.781 222.431,237.625 222.547,236.250 222.654 C 233.617 222.858,233.260 222.909,229.667 223.598 C 224.364 224.614,216.449 227.901,214.667 229.827 C 214.621 229.876,214.230 230.201,213.798 230.548 C 212.832 231.324,211.114 233.047,210.524 233.833 C 210.283 234.154,210.047 234.454,210.000 234.500 C 209.018 235.466,207.235 239.350,206.739 241.605 C 206.237 243.887,206.173 244.839,206.170 250.125 L 206.167 255.500 228.750 255.500 L 251.333 255.500 251.333 238.917 L 251.333 222.333 245.111 222.333 C 241.689 222.333,238.858 222.362,238.819 222.397 " style="stroke:none;fill:#349ccc;fill-rule:evenodd;"/>
    <path id="path1" d="M304.917 144.847 C 301.978 145.001,296.278 145.819,294.583 146.330 C 289.706 147.800,285.906 149.441,284.083 150.864 C 283.992 150.935,283.354 151.432,282.667 151.968 C 279.601 154.356,277.221 157.580,275.321 161.917 C 273.986 164.966,272.970 170.100,272.740 174.968 C 272.621 177.484,272.624 177.520,272.977 177.612 C 273.173 177.664,274.846 179.478,276.694 181.645 C 278.542 183.811,280.136 185.658,280.235 185.750 C 280.335 185.842,280.791 186.367,281.248 186.917 C 281.705 187.467,282.155 187.998,282.248 188.098 C 282.341 188.198,282.792 188.714,283.250 189.246 C 283.708 189.778,284.159 190.296,284.252 190.398 C 284.345 190.500,285.020 191.296,285.752 192.167 C 286.484 193.037,287.125 193.787,287.175 193.833 C 287.249 193.900,290.681 197.901,292.667 200.236 C 292.896 200.505,293.196 200.847,293.333 200.996 C 293.471 201.144,294.182 201.975,294.914 202.841 C 295.646 203.708,296.321 204.500,296.414 204.602 C 296.507 204.704,296.958 205.222,297.417 205.754 C 297.875 206.286,298.325 206.802,298.417 206.902 C 298.508 207.002,299.707 208.396,301.079 210.000 C 302.452 211.604,303.615 212.954,303.663 213.000 C 303.711 213.046,304.349 213.796,305.081 214.667 C 305.813 215.537,306.488 216.333,306.581 216.435 C 306.674 216.537,307.125 217.058,307.583 217.593 C 308.042 218.128,308.717 218.911,309.083 219.333 C 309.450 219.756,310.125 220.539,310.583 221.074 C 311.042 221.608,311.492 222.129,311.583 222.231 C 311.717 222.380,316.390 227.827,318.166 229.905 C 318.396 230.173,318.696 230.512,318.833 230.659 C 318.971 230.806,319.421 231.334,319.833 231.833 C 320.246 232.332,320.696 232.861,320.833 233.007 C 321.129 233.323,320.780 232.917,326.414 239.500 C 328.885 242.387,330.984 244.831,331.079 244.931 C 331.173 245.030,331.587 245.510,332.000 245.998 C 332.412 246.485,332.862 247.005,333.000 247.154 C 333.137 247.302,333.625 247.872,334.083 248.419 C 334.542 248.967,334.992 249.497,335.083 249.599 C 335.175 249.700,335.625 250.221,336.083 250.757 C 338.909 254.062,340.214 255.500,340.387 255.500 C 341.550 255.499,349.619 254.962,350.250 254.844 C 350.708 254.758,351.511 254.641,352.033 254.583 C 352.937 254.483,355.896 253.900,357.500 253.505 C 360.537 252.758,366.152 250.240,367.167 249.169 C 367.212 249.121,367.512 248.882,367.833 248.639 C 373.089 244.651,376.040 237.593,376.444 228.046 L 376.552 225.509 375.984 224.782 C 375.672 224.383,375.117 223.692,374.750 223.249 C 373.896 222.215,372.086 220.044,371.614 219.487 C 371.414 219.251,370.800 218.501,370.251 217.821 C 369.701 217.140,368.811 216.058,368.273 215.417 C 367.116 214.037,367.062 213.971,365.672 212.250 C 365.080 211.517,364.555 210.879,364.506 210.833 C 364.457 210.787,363.929 210.150,363.333 209.417 C 362.738 208.683,362.124 207.933,361.970 207.750 C 361.816 207.567,360.517 205.992,359.082 204.250 C 357.648 202.508,356.349 200.933,356.195 200.750 C 356.042 200.567,355.429 199.817,354.833 199.085 C 354.238 198.353,353.675 197.672,353.583 197.572 C 353.492 197.472,352.817 196.652,352.083 195.750 C 351.350 194.849,350.637 193.990,350.500 193.841 C 350.363 193.693,349.804 193.011,349.259 192.327 C 348.714 191.643,348.189 191.008,348.093 190.917 C 347.996 190.825,347.467 190.188,346.917 189.500 C 345.986 188.338,344.597 186.644,343.770 185.665 C 343.354 185.172,342.025 183.557,341.667 183.109 C 341.529 182.937,341.341 182.711,341.249 182.606 C 341.157 182.502,340.746 182.004,340.335 181.500 C 339.924 180.996,339.547 180.546,339.496 180.500 C 339.446 180.454,338.920 179.817,338.328 179.083 C 337.084 177.543,337.048 177.499,335.642 175.816 C 333.958 173.800,333.430 173.157,333.337 173.009 C 333.289 172.934,332.974 172.544,332.638 172.144 C 332.301 171.744,331.562 170.854,330.997 170.167 C 330.431 169.479,329.806 168.727,329.609 168.495 C 329.412 168.262,328.765 167.475,328.172 166.745 C 327.579 166.014,327.054 165.379,327.005 165.333 C 326.957 165.287,326.429 164.650,325.833 163.917 C 325.237 163.183,324.623 162.433,324.467 162.250 C 324.172 161.901,321.362 158.475,319.615 156.333 C 319.054 155.646,318.552 155.046,318.500 155.000 C 318.448 154.954,317.920 154.317,317.328 153.583 C 316.084 152.043,316.048 151.999,314.642 150.316 C 314.060 149.618,313.321 148.725,313.000 148.331 C 312.679 147.937,312.154 147.299,311.833 146.913 C 311.512 146.528,310.965 145.865,310.617 145.440 L 309.983 144.667 308.700 144.692 C 307.994 144.705,306.292 144.775,304.917 144.847 M326.355 144.958 C 326.647 145.332,330.802 149.973,331.247 150.424 C 331.432 150.611,332.071 151.322,332.667 152.003 C 333.262 152.684,333.862 153.360,334.000 153.505 C 334.137 153.651,334.850 154.434,335.583 155.246 C 336.317 156.059,336.992 156.806,337.083 156.908 C 337.745 157.639,338.951 158.981,340.083 160.246 C 340.817 161.065,341.829 162.192,342.333 162.749 C 342.837 163.307,343.850 164.430,344.583 165.244 C 345.317 166.059,346.029 166.847,346.167 166.996 C 346.304 167.145,347.017 167.938,347.750 168.759 C 348.483 169.579,349.158 170.333,349.250 170.433 C 349.342 170.534,350.017 171.281,350.750 172.092 C 351.483 172.903,352.196 173.687,352.333 173.834 C 352.471 173.981,353.183 174.772,353.917 175.592 C 354.650 176.412,355.325 177.166,355.417 177.268 C 355.508 177.369,356.153 178.082,356.850 178.851 C 357.546 179.620,359.564 181.862,361.334 183.833 C 365.744 188.744,367.013 190.150,367.500 190.663 C 367.729 190.904,368.172 191.397,368.484 191.759 C 368.795 192.121,369.596 193.017,370.263 193.752 C 370.929 194.486,371.612 195.244,371.779 195.436 C 371.946 195.629,372.691 196.453,373.433 197.268 C 374.176 198.083,375.113 199.138,375.517 199.613 C 375.920 200.087,376.306 200.481,376.375 200.488 C 376.444 200.494,376.500 187.938,376.500 172.583 L 376.500 144.667 351.313 144.667 C 327.349 144.667,326.137 144.681,326.355 144.958 M272.875 227.375 L 272.917 255.417 297.125 255.459 C 310.440 255.482,321.333 255.440,321.333 255.366 C 321.333 255.247,319.963 253.555,319.687 253.333 C 319.630 253.287,319.209 252.800,318.752 252.250 C 318.295 251.700,317.845 251.168,317.752 251.069 C 317.659 250.969,317.208 250.452,316.750 249.921 C 316.292 249.389,315.842 248.871,315.750 248.769 C 315.658 248.667,314.459 247.271,313.085 245.667 C 311.712 244.063,310.512 242.667,310.419 242.565 C 310.326 242.463,309.875 241.942,309.417 241.407 C 308.958 240.872,308.255 240.056,307.854 239.592 C 307.453 239.129,306.966 238.562,306.771 238.333 C 306.576 238.103,305.704 237.093,304.833 236.088 C 303.962 235.083,303.063 234.038,302.833 233.767 C 302.604 233.496,302.304 233.154,302.167 233.007 C 302.029 232.861,301.579 232.332,301.167 231.833 C 300.754 231.334,300.304 230.806,300.167 230.659 C 300.029 230.512,299.729 230.172,299.500 229.902 C 297.752 227.843,294.911 224.553,294.764 224.417 C 294.665 224.325,294.209 223.800,293.752 223.250 C 293.295 222.700,292.845 222.168,292.752 222.069 C 292.659 221.969,292.234 221.481,291.808 220.985 C 291.381 220.489,289.993 218.879,288.724 217.406 C 287.455 215.934,286.042 214.288,285.583 213.750 C 285.125 213.211,284.637 212.651,284.500 212.505 C 284.362 212.360,283.912 211.832,283.500 211.333 C 283.087 210.834,282.637 210.306,282.500 210.159 C 282.362 210.012,282.063 209.673,281.833 209.404 C 281.604 209.135,280.704 208.093,279.833 207.088 C 278.962 206.083,278.063 205.038,277.833 204.767 C 277.604 204.496,277.304 204.154,277.167 204.007 C 277.029 203.861,276.579 203.332,276.167 202.833 C 275.754 202.334,275.304 201.806,275.167 201.659 C 275.029 201.512,274.516 200.929,274.027 200.363 C 273.537 199.797,273.068 199.333,272.985 199.333 C 272.893 199.333,272.849 210.528,272.875 227.375 " style="stroke:none;fill:#fc6464;fill-rule:evenodd;" />
</svg>